<?xml version="1.0" standalone="no"?>
<!DOCTYPE svg PUBLIC "-//W3C//DTD SVG 20010904//EN"
 "http://www.w3.org/TR/2001/REC-SVG-20010904/DTD/svg10.dtd">
<svg version="1.0" xmlns="http://www.w3.org/2000/svg"
 width="400.000000pt" height="400.000000pt" viewBox="0 0 400.000000 400.000000"
 preserveAspectRatio="xMidYMid meet">
<metadata>
Created by potrace 1.14, written by Peter Selinger 2001-2017
</metadata>
<g transform="translate(0.000000,400.000000) scale(0.100000,-0.100000)"
fill="#000000" stroke="none">
<path d="M1699 2683 c-30 -32 -80 -94 -111 -138 -31 -44 -65 -89 -75 -100 -10
-11 -29 -36 -43 -55 -37 -55 -373 -391 -620 -623 -258 -241 -350 -333 -350
-351 0 -14 59 -38 73 -29 6 4 7 1 2 -7 -5 -8 -3 -11 6 -8 8 3 20 -2 27 -9 8
-8 23 -11 34 -7 13 4 18 2 14 -4 -3 -5 1 -13 10 -16 8 -3 12 -2 9 4 -10 16 0
12 25 -10 13 -12 30 -18 37 -16 7 3 13 2 13 -3 0 -4 17 -15 38 -23 66 -27 655
-266 731 -297 41 -17 76 -29 78 -27 2 2 -10 9 -27 16 -37 15 -37 20 -2 53 15
14 33 33 40 41 6 8 19 13 28 9 13 -5 12 -10 -8 -32 l-23 -26 27 23 c19 18 33
22 50 17 22 -7 22 -6 4 8 -19 14 -18 16 18 60 l37 45 34 -14 c19 -8 45 -14 57
-13 13 0 2 7 -27 16 -27 8 -51 16 -53 18 -2 1 14 26 35 54 l38 52 55 -6 c30
-4 57 -9 59 -11 5 -5 -48 -107 -62 -119 -7 -6 -13 -17 -15 -25 -3 -11 0 -12 8
-4 8 8 24 9 48 3 20 -4 49 -10 64 -14 l28 -5 -31 -58 c-17 -31 -33 -60 -35
-64 -4 -6 -121 28 -133 38 -2 2 3 12 11 21 19 22 41 63 33 63 -2 0 -16 -18
-30 -39 -20 -29 -32 -38 -48 -35 -12 2 -16 2 -9 -2 19 -9 15 -24 -23 -70 -38
-46 -41 -54 -23 -54 6 0 8 3 5 6 -4 4 11 28 33 54 l39 47 63 -20 c35 -11 65
-22 67 -23 2 -2 -13 -26 -34 -54 -40 -54 -39 -54 -114 -24 -37 16 -54 18 -31
5 17 -10 987 -402 1010 -408 9 -2 24 10 36 29 49 76 411 654 418 668 4 8 -1 4
-11 -8 -19 -23 -20 -23 -59 -7 -83 35 -88 37 -75 21 6 -8 23 -17 36 -20 13 -3
36 -11 50 -16 l25 -10 -61 -90 c-35 -53 -65 -88 -71 -84 -6 4 -8 2 -4 -4 5 -8
-31 -63 -55 -82 -23 -19 -159 -206 -183 -252 l-29 -56 -71 34 c-39 19 -73 41
-75 51 -2 11 -5 12 -10 4 -6 -8 -26 -6 -77 10 -38 12 -70 22 -72 24 -2 2 10
35 27 73 17 39 31 75 31 81 0 7 6 14 14 17 8 3 12 12 9 20 -3 8 -9 12 -13 9
-4 -3 -38 3 -74 12 -54 13 -66 19 -61 32 4 9 20 55 37 103 29 85 31 87 55 77
14 -5 28 -7 31 -5 2 3 -7 8 -22 12 -31 7 -32 18 -6 86 11 28 18 53 16 55 -3 3
-18 -30 -47 -104 -6 -17 -13 -20 -34 -15 -25 7 -25 9 -30 125 -5 133 -2 136
75 97 22 -11 40 -18 40 -15 0 4 -25 17 -55 31 -55 26 -66 41 -42 66 6 7 12 24
13 38 0 14 3 36 7 50 4 14 -2 5 -14 -20 -19 -41 -22 -43 -34 -27 -13 19 -32
154 -22 164 3 3 21 0 39 -6 31 -10 32 -10 13 5 -11 8 -30 17 -42 20 -31 8 -35
42 -13 120 22 81 19 94 -6 27 l-19 -48 -8 40 c-21 103 -21 115 4 116 23 1 23
1 -2 10 -23 9 -28 18 -33 63 -4 29 -4 66 0 82 6 25 5 27 -8 16 -13 -10 -16 -8
-22 19 -11 54 -8 62 19 57 13 -3 22 -1 19 3 -3 5 -14 9 -25 9 -38 0 -60 104
-35 163 l15 38 -29 5 c-43 9 -71 94 -44 132 14 20 14 22 0 23 -29 3 -32 4 -47
19 -8 8 -15 26 -16 39 -2 18 2 22 18 18 10 -3 19 -1 19 4 0 5 -3 9 -7 10 -5 0
-19 2 -31 3 -13 2 -28 9 -33 17 -6 11 -34 14 -113 14 -71 0 -109 4 -117 13
-11 10 -8 12 12 13 22 0 22 1 4 9 -27 12 -47 12 -41 1 7 -11 -28 -21 -73 -21
-28 0 -32 2 -21 14 6 8 24 17 38 19 25 4 25 4 -4 6 -26 1 -40 -9 -85 -56z
m146 -3 c-3 -5 -16 -10 -28 -9 -20 1 -20 2 3 9 14 4 26 8 28 9 2 1 0 -3 -3 -9z
m-101 -9 c-17 -4 -37 -12 -45 -16 -12 -8 -12 -6 0 8 8 10 26 17 45 16 l31 -1
-31 -7z m-164 -205 c0 -30 -3 -34 -30 -38 -16 -3 -30 -3 -30 -1 0 6 52 73 56
73 2 0 4 -15 4 -34z m-7 -62 c4 -4 -3 -24 -15 -45 -18 -32 -27 -39 -52 -39
-36 0 -66 16 -51 28 6 4 18 19 28 35 13 20 25 27 51 27 18 0 36 -3 39 -6z
m677 -13 c0 -17 -12 -41 -21 -41 -5 0 -9 11 -9 25 0 16 6 25 15 25 8 0 15 -4
15 -9z m-670 -51 c0 -5 -5 -10 -11 -10 -5 0 -7 5 -4 10 3 6 8 10 11 10 2 0 4
-4 4 -10z m-60 -38 c0 -3 -10 -21 -22 -40 -22 -32 -25 -33 -68 -28 -59 8 -69
20 -41 50 19 20 32 24 77 24 30 0 54 -3 54 -6z m63 -29 c2 -21 2 -41 0 -45 -7
-12 -93 -9 -93 3 0 18 55 79 71 79 12 0 18 -11 22 -37z m-156 -57 l22 -11 -30
-33 c-28 -31 -32 -33 -61 -23 -17 6 -33 9 -35 7 -2 -2 11 -9 29 -15 l33 -12
-51 -49 c-51 -49 -52 -50 -80 -35 -16 8 -37 15 -46 15 -10 0 -18 5 -18 11 0
19 83 100 97 94 8 -3 11 0 7 6 -3 6 7 24 22 40 30 31 58 33 111 5z m111 -12
l30 -6 -19 -33 c-32 -53 -41 -57 -93 -44 -25 6 -46 14 -46 18 0 10 52 57 70
64 21 8 24 8 58 1z m64 -59 c3 -28 1 -30 -34 -33 -21 -2 -38 0 -38 3 0 15 54
75 61 68 4 -4 9 -21 11 -38z m-152 -37 c22 -7 40 -17 40 -21 0 -5 -16 -25 -35
-44 -38 -38 -42 -45 -22 -42 20 3 107 -24 107 -34 0 -10 -59 -1 -99 15 -34 14
-37 15 -94 30 -48 12 -60 35 -16 30 19 -1 21 0 9 7 -12 8 -10 15 15 41 32 34
39 35 95 18z m158 -23 c1 -1 -10 -23 -24 -49 -23 -42 -30 -47 -51 -41 -14 3
-38 9 -54 12 l-29 6 37 42 c35 40 41 42 78 37 22 -2 41 -6 43 -7z m22 -77 c0
-13 -8 -18 -31 -18 l-30 0 22 31 c22 32 38 26 39 -13z m-20 -48 c-19 -12 -63
-13 -56 -2 3 5 20 9 38 10 23 1 28 -2 18 -8z m787 -512 c-3 -7 -5 -2 -5 12 0
14 2 19 5 13 2 -7 2 -19 0 -25z m-547 -82 c-19 -43 -43 -66 -56 -53 -3 2 4 20
14 38 10 19 24 45 31 58 9 15 16 20 23 13 6 -6 2 -26 -12 -56z m74 -38 l18
-28 -56 0 c-56 0 -68 8 -42 29 8 6 19 25 26 42 l13 29 11 -22 c7 -13 20 -35
30 -50z m-124 -41 c0 -24 -60 -96 -75 -90 -20 7 -20 8 17 59 30 43 58 57 58
31z m212 -94 c14 -15 18 -28 13 -43 -7 -21 -11 -22 -68 -16 -33 3 -62 8 -65
10 -2 3 13 33 33 67 l38 62 15 -29 c8 -16 23 -39 34 -51z m-288 -11 c7 -11
-63 -92 -80 -92 -17 0 -17 4 -1 31 32 56 68 82 81 61z m346 -48 c0 -2 -7 -4
-15 -4 -8 0 -15 4 -15 10 0 5 7 7 15 4 8 -4 15 -8 15 -10z m380 -3 c0 -5 -15
-51 -34 -102 -24 -67 -38 -94 -50 -93 -9 0 -39 1 -67 2 -33 1 -48 6 -43 13 3
6 16 8 28 5 11 -3 36 0 53 6 27 10 36 21 53 72 11 33 20 70 20 83 0 16 6 23
20 23 11 0 20 -4 20 -9z m-347 -46 l27 -24 -24 -55 c-23 -52 -26 -55 -58 -52
-18 2 -24 1 -13 -1 11 -3 24 -8 29 -13 11 -11 -51 -120 -69 -120 -24 0 -125
41 -125 50 0 5 5 12 10 15 6 4 22 25 36 47 23 36 28 39 57 33 l32 -5 -27 12
-28 13 37 63 c43 71 68 79 116 37z m131 -108 c9 9 7 -10 -3 -26 -6 -10 -24
-12 -65 -9 -31 3 -59 7 -62 10 -3 3 4 25 16 48 l21 41 43 -35 c24 -19 46 -32
50 -29z m-62 -52 l47 -6 -16 -42 c-9 -23 -19 -46 -23 -52 -10 -15 -20 -45 -15
-45 3 0 21 32 41 71 l36 72 60 -6 c33 -3 61 -7 64 -9 2 -3 -11 -41 -28 -86
-21 -53 -38 -82 -48 -82 -21 0 -131 27 -212 51 l-68 20 26 42 c15 23 33 52 41
65 8 14 21 21 31 18 9 -2 38 -7 64 -11z m306 -24 c23 -5 45 -11 48 -14 5 -5
-53 -155 -66 -170 -8 -9 -140 13 -140 23 0 4 13 36 28 71 16 35 32 72 35 82 7
19 29 21 95 8z"/>
<path d="M1370 2030 c8 -5 22 -9 30 -9 10 0 8 3 -5 9 -27 12 -43 12 -25 0z"/>
<path d="M2795 2674 c-155 -32 -274 -76 -377 -140 -53 -32 -61 -34 -95 -25
-44 13 -56 6 -19 -10 16 -8 23 -16 17 -23 -12 -16 -21 -57 -10 -51 10 7 98
-173 103 -212 1 -15 26 -77 55 -137 28 -60 49 -111 47 -114 -5 -5 63 -134 74
-142 4 -3 30 -39 58 -80 55 -82 102 -132 174 -188 40 -30 45 -38 35 -51 -10
-14 -10 -14 4 -3 14 11 29 7 90 -22 97 -44 139 -62 169 -71 14 -4 27 -10 30
-14 4 -5 75 -29 138 -47 7 -2 10 -9 6 -16 -5 -9 -4 -10 4 -3 8 8 190 295 320
505 l16 25 -25 -25 c-14 -14 -26 -27 -25 -30 0 -3 -8 -19 -17 -37 -25 -47 -42
-52 -18 -5 21 41 61 145 126 332 40 112 75 191 101 227 16 22 15 23 -22 39
-22 10 -149 70 -284 135 -245 117 -357 159 -480 179 -64 10 -156 12 -195 4z"/>
<path d="M2380 2254 c0 -6 7 -19 16 -30 14 -18 14 -18 3 6 -14 31 -19 36 -19
24z"/>
<path d="M3736 2033 c-6 -14 -5 -15 5 -6 7 7 10 15 7 18 -3 3 -9 -2 -12 -12z"/>
<path d="M3714 1998 c-4 -7 -14 -24 -22 -38 -14 -24 -13 -24 3 -5 20 24 37 55
31 55 -3 0 -8 -6 -12 -12z"/>
<path d="M2472 1976 c7 -8 17 -12 22 -9 4 3 2 9 -5 14 -22 13 -31 11 -17 -5z"/>
<path d="M2501 1930 c14 -31 19 -36 19 -24 0 6 -7 19 -16 30 -14 18 -14 18 -3
-6z"/>
<path d="M3653 1898 c-15 -20 -25 -38 -20 -38 3 0 12 11 21 25 17 26 16 35 -1
13z"/>
<path d="M2531 1870 c14 -31 19 -36 19 -24 0 6 -7 19 -16 30 -14 18 -14 18 -3
-6z"/>
<path d="M2590 1806 c0 -4 11 -29 25 -56 29 -57 32 -73 7 -45 -9 11 -26 21
-37 23 -18 3 -18 2 3 -13 12 -9 31 -34 42 -56 11 -21 23 -39 26 -39 2 0 0 9
-6 19 -13 26 -13 54 1 46 5 -4 -4 22 -22 57 -33 66 -39 76 -39 64z"/>
<path d="M2540 1732 c6 -13 14 -21 18 -18 3 4 -2 14 -12 24 -18 16 -18 16 -6
-6z"/>
<path d="M2701 1601 c28 -39 58 -76 67 -83 8 -7 -3 12 -26 42 -26 34 -37 57
-30 61 6 4 3 9 -10 13 -11 4 -23 13 -26 21 -3 8 -10 15 -16 15 -5 0 13 -31 41
-69z"/>
<path d="M2466 1623 c-6 -14 -5 -15 5 -6 7 7 10 15 7 18 -3 3 -9 -2 -12 -12z"/>
<path d="M2660 1607 c0 -9 61 -107 67 -107 2 0 -6 17 -18 38 -34 56 -49 77
-49 69z"/>
<path d="M2630 1570 c6 -11 13 -20 16 -20 2 0 0 9 -6 20 -6 11 -13 20 -16 20
-2 0 0 -9 6 -20z"/>
<path d="M2669 1503 c8 -16 8 -22 -1 -25 -7 -3 -2 -7 10 -10 27 -7 27 0 1 32
-17 21 -19 22 -10 3z"/>
<path d="M2738 1474 c6 -11 19 -27 28 -35 16 -13 16 -12 6 7 -6 11 -19 27 -28
35 -16 13 -16 12 -6 -7z"/>
<path d="M2803 1474 c0 -8 6 -14 14 -14 7 0 13 4 13 9 0 5 -6 11 -13 14 -8 3
-14 -1 -14 -9z"/>
<path d="M2975 1398 c-67 -78 -71 -84 -37 -53 32 28 78 85 69 85 -2 0 -16 -15
-32 -32z"/>
<path d="M2780 1417 c0 -2 15 -16 33 -33 l32 -29 -29 33 c-28 30 -36 37 -36
29z"/>
<path d="M2750 1366 c0 -2 8 -10 18 -17 15 -13 16 -12 3 4 -13 16 -21 21 -21
13z"/>
<path d="M3122 1340 l-22 -30 -56 25 c-31 14 -51 19 -45 12 6 -8 29 -20 51
-27 22 -7 40 -16 40 -19 0 -18 -53 -81 -62 -75 -7 4 -8 2 -4 -4 12 -20 21 -14
51 33 22 36 32 44 49 40 19 -5 19 -5 3 5 -16 10 -17 14 -4 28 17 20 30 42 24
42 -2 0 -13 -13 -25 -30z"/>
<path d="M2780 1326 c0 -2 8 -10 18 -17 15 -13 16 -12 3 4 -13 16 -21 21 -21
13z"/>
<path d="M3259 1280 c-15 -17 -25 -30 -22 -30 2 0 -1 -9 -7 -20 -18 -34 -3
-22 21 18 13 20 27 43 32 50 13 20 4 13 -24 -18z"/>
<path d="M2830 1278 c-18 -7 -21 -12 -10 -15 8 -3 38 -26 65 -52 l50 -46 -48
50 c-37 40 -45 53 -35 63 14 14 11 14 -22 0z"/>
<path d="M3190 1270 c8 -5 20 -10 25 -10 6 0 3 5 -5 10 -8 5 -19 10 -25 10 -5
0 -3 -5 5 -10z"/>
<path d="M3009 1183 c-13 -16 -12 -17 4 -4 9 7 17 15 17 17 0 8 -8 3 -21 -13z"/>
<path d="M2860 1125 c19 -19 36 -35 39 -35 3 0 -10 16 -29 35 -19 19 -36 35
-39 35 -3 0 10 -16 29 -35z"/>
<path d="M3010 1116 c0 -3 9 -10 20 -16 11 -6 20 -8 20 -6 0 3 -9 10 -20 16
-11 6 -20 8 -20 6z"/>
<path d="M2889 1063 c-13 -16 -12 -17 4 -4 14 11 20 11 35 0 15 -13 16 -12 3
4 -7 9 -17 17 -21 17 -4 0 -14 -8 -21 -17z"/>
<path d="M1720 1050 c8 -5 20 -10 25 -10 6 0 3 5 -5 10 -8 5 -19 10 -25 10 -5
0 -3 -5 5 -10z"/>
<path d="M2830 1029 c0 -7 -8 -21 -17 -33 -18 -20 -18 -20 9 0 30 21 34 29 18
39 -5 3 -10 1 -10 -6z"/>
<path d="M1589 1003 c-13 -16 -12 -17 4 -4 16 13 21 21 13 21 -2 0 -10 -8 -17
-17z"/>
<path d="M2562 955 c-17 -37 -14 -45 4 -12 9 16 14 31 11 33 -2 2 -9 -7 -15
-21z"/>
<path d="M1650 940 c19 -11 40 -19 45 -19 6 0 -6 8 -25 19 -19 11 -39 19 -45
19 -5 0 6 -8 25 -19z"/>
<path d="M2765 940 c3 -5 8 -10 11 -10 2 0 4 5 4 10 0 6 -5 10 -11 10 -5 0 -7
-4 -4 -10z"/>
<path d="M2646 725 c-9 -26 -7 -32 5 -12 6 10 9 21 6 23 -2 3 -7 -2 -11 -11z"/>
<path d="M2265 490 c-10 -11 -14 -20 -9 -20 5 0 15 9 22 20 7 11 11 20 9 20
-2 0 -12 -9 -22 -20z"/>
</g>
</svg>
